<svg width="1024" height="1024" viewBox="0 0 1024 1024" fill="none" xmlns="http://www.w3.org/2000/svg">
<rect width="1024" height="1024" rx="101" fill="#229D8F"/>
<path d="M530.856 906.304C471.14 906.304 413.972 897.941 359.354 881.214C304.735 863.76 261.404 841.579 229.362 814.671L278.518 704.494C309.105 728.493 346.974 748.492 392.125 764.492C437.276 780.491 483.52 788.491 530.856 788.491C570.91 788.491 603.317 784.127 628.077 775.4C652.837 766.673 671.044 755.038 682.695 740.493C694.347 725.221 700.173 708.13 700.173 689.222C700.173 665.95 691.799 647.406 675.049 633.588C658.299 619.043 636.452 607.771 609.507 599.771C583.29 591.044 553.796 583.045 521.025 575.772C488.982 568.5 456.575 560.137 423.804 550.683C391.761 540.501 362.267 527.774 335.322 512.502C309.105 496.503 287.621 475.413 270.872 449.232C254.122 423.052 245.747 389.599 245.747 348.873C245.747 307.42 256.671 269.604 278.518 235.423C301.094 200.516 334.957 172.88 380.109 152.518C425.988 131.428 483.884 120.883 553.796 120.883C599.675 120.883 645.191 126.701 690.342 138.337C735.493 149.972 774.819 166.699 808.318 188.516L763.531 298.693C729.303 278.331 693.983 263.422 657.571 253.968C621.159 243.787 586.203 238.696 552.703 238.696C513.378 238.696 481.335 243.423 456.575 252.877C432.543 262.331 414.701 274.694 403.049 289.966C392.125 305.238 386.663 322.692 386.663 342.328C386.663 365.6 394.674 384.508 410.695 399.053C427.445 412.87 448.928 423.779 475.145 431.779C502.09 439.778 531.948 447.778 564.719 455.778C597.491 463.05 629.898 471.413 661.94 480.867C694.712 490.322 724.206 502.685 750.422 517.957C777.368 533.229 798.851 553.955 814.872 580.136C831.622 606.317 839.997 639.406 839.997 679.404C839.997 720.13 828.709 757.946 806.133 792.854C784.286 827.034 750.422 854.67 704.543 875.76C658.663 896.122 600.768 906.304 530.856 906.304Z" fill="white"/>
<path d="M873 350.642L623.813 302.845L799.874 108L873 350.642Z" fill="white"/>
<path d="M402.264 705.462L261.069 916L150 678.146L402.264 705.462Z" fill="white"/>
</svg>
