<svg width="263" height="49" viewBox="0 0 263 49" fill="none" xmlns="http://www.w3.org/2000/svg">
<path d="M13.8 39.1C11.0667 39.1 8.45 38.7167 5.95 37.95C3.45 37.15 1.46667 36.1333 0 34.9L2.25 29.85C3.65 30.95 5.38333 31.8667 7.45 32.6C9.51667 33.3333 11.6333 33.7 13.8 33.7C15.6333 33.7 17.1167 33.5 18.25 33.1C19.3833 32.7 20.2167 32.1667 20.75 31.5C21.2833 30.8 21.55 30.0167 21.55 29.15C21.55 28.0833 21.1667 27.2333 20.4 26.6C19.6333 25.9333 18.6333 25.4167 17.4 25.05C16.2 24.65 14.85 24.2833 13.35 23.95C11.8833 23.6167 10.4 23.2333 8.9 22.8C7.43333 22.3333 6.08333 21.75 4.85 21.05C3.65 20.3167 2.66667 19.35 1.9 18.15C1.13333 16.95 0.75 15.4167 0.75 13.55C0.75 11.65 1.25 9.91667 2.25 8.35C3.28333 6.75 4.83333 5.48333 6.9 4.55C9 3.58333 11.65 3.1 14.85 3.1C16.95 3.1 19.0333 3.36667 21.1 3.9C23.1667 4.43333 24.9667 5.2 26.5 6.2L24.45 11.25C22.8833 10.3167 21.2667 9.63333 19.6 9.2C17.9333 8.73333 16.3333 8.5 14.8 8.5C13 8.5 11.5333 8.71667 10.4 9.15C9.3 9.58333 8.48333 10.15 7.95 10.85C7.45 11.55 7.2 12.35 7.2 13.25C7.2 14.3167 7.56667 15.1833 8.3 15.85C9.06667 16.4833 10.05 16.9833 11.25 17.35C12.4833 17.7167 13.85 18.0833 15.35 18.45C16.85 18.7833 18.3333 19.1667 19.8 19.6C21.3 20.0333 22.65 20.6 23.85 21.3C25.0833 22 26.0667 22.95 26.8 24.15C27.5667 25.35 27.95 26.8667 27.95 28.7C27.95 30.5667 27.4333 32.3 26.4 33.9C25.4 35.4667 23.85 36.7333 21.75 37.7C19.65 38.6333 17 39.1 13.8 39.1Z" fill="#2B2B2B"/>
<path d="M39.207 38.6L29.407 11.9H35.307L43.707 35.45H40.907L49.707 11.9H54.957L63.507 35.45H60.757L69.407 11.9H74.957L65.107 38.6H59.107L51.307 17.75H53.157L45.207 38.6H39.207Z" fill="#2B2B2B"/>
<path d="M79.2543 38.6V11.9H85.5043V38.6H79.2543ZM82.4043 7.5C81.2376 7.5 80.271 7.13333 79.5043 6.4C78.771 5.66667 78.4043 4.78333 78.4043 3.75C78.4043 2.68333 78.771 1.8 79.5043 1.1C80.271 0.366666 81.2376 0 82.4043 0C83.571 0 84.521 0.349999 85.2543 1.05C86.021 1.71667 86.4043 2.56667 86.4043 3.6C86.4043 4.7 86.0376 5.63333 85.3043 6.4C84.571 7.13333 83.6043 7.5 82.4043 7.5Z" fill="#2B2B2B"/>
<path d="M108.507 38.95C106.341 38.95 104.357 38.45 102.557 37.45C100.791 36.45 99.3741 34.95 98.3074 32.95C97.2741 30.9167 96.7574 28.35 96.7574 25.25C96.7574 22.1167 97.2574 19.55 98.2574 17.55C99.2908 15.55 100.691 14.0667 102.457 13.1C104.224 12.1 106.241 11.6 108.507 11.6C111.141 11.6 113.457 12.1667 115.457 13.3C117.491 14.4333 119.091 16.0167 120.257 18.05C121.457 20.0833 122.057 22.4833 122.057 25.25C122.057 28.0167 121.457 30.4333 120.257 32.5C119.091 34.5333 117.491 36.1167 115.457 37.25C113.457 38.3833 111.141 38.95 108.507 38.95ZM93.7074 48.3V11.9H99.6574V18.2L99.4574 25.3L99.9574 32.4V48.3H93.7074ZM107.807 33.6C109.307 33.6 110.641 33.2667 111.807 32.6C113.007 31.9333 113.957 30.9667 114.657 29.7C115.357 28.4333 115.707 26.95 115.707 25.25C115.707 23.5167 115.357 22.0333 114.657 20.8C113.957 19.5333 113.007 18.5667 111.807 17.9C110.641 17.2333 109.307 16.9 107.807 16.9C106.307 16.9 104.957 17.2333 103.757 17.9C102.557 18.5667 101.607 19.5333 100.907 20.8C100.207 22.0333 99.8574 23.5167 99.8574 25.25C99.8574 26.95 100.207 28.4333 100.907 29.7C101.607 30.9667 102.557 31.9333 103.757 32.6C104.957 33.2667 106.307 33.6 107.807 33.6Z" fill="#2B2B2B"/>
<path d="M139.435 39.1C136.701 39.1 134.085 38.7167 131.585 37.95C129.085 37.15 127.101 36.1333 125.635 34.9L127.885 29.85C129.285 30.95 131.018 31.8667 133.085 32.6C135.151 33.3333 137.268 33.7 139.435 33.7C141.268 33.7 142.751 33.5 143.885 33.1C145.018 32.7 145.851 32.1667 146.385 31.5C146.918 30.8 147.185 30.0167 147.185 29.15C147.185 28.0833 146.801 27.2333 146.035 26.6C145.268 25.9333 144.268 25.4167 143.035 25.05C141.835 24.65 140.485 24.2833 138.985 23.95C137.518 23.6167 136.035 23.2333 134.535 22.8C133.068 22.3333 131.718 21.75 130.485 21.05C129.285 20.3167 128.301 19.35 127.535 18.15C126.768 16.95 126.385 15.4167 126.385 13.55C126.385 11.65 126.885 9.91667 127.885 8.35C128.918 6.75 130.468 5.48333 132.535 4.55C134.635 3.58333 137.285 3.1 140.485 3.1C142.585 3.1 144.668 3.36667 146.735 3.9C148.801 4.43333 150.601 5.2 152.135 6.2L150.085 11.25C148.518 10.3167 146.901 9.63333 145.235 9.2C143.568 8.73333 141.968 8.5 140.435 8.5C138.635 8.5 137.168 8.71667 136.035 9.15C134.935 9.58333 134.118 10.15 133.585 10.85C133.085 11.55 132.835 12.35 132.835 13.25C132.835 14.3167 133.201 15.1833 133.935 15.85C134.701 16.4833 135.685 16.9833 136.885 17.35C138.118 17.7167 139.485 18.0833 140.985 18.45C142.485 18.7833 143.968 19.1667 145.435 19.6C146.935 20.0333 148.285 20.6 149.485 21.3C150.718 22 151.701 22.95 152.435 24.15C153.201 25.35 153.585 26.8667 153.585 28.7C153.585 30.5667 153.068 32.3 152.035 33.9C151.035 35.4667 149.485 36.7333 147.385 37.7C145.285 38.6333 142.635 39.1 139.435 39.1Z" fill="#2B2B2B"/>
<path d="M164.842 38.6L155.042 11.9H160.942L169.342 35.45H166.542L175.342 11.9H180.592L189.142 35.45H186.392L195.042 11.9H200.592L190.742 38.6H184.742L176.942 17.75H178.792L170.842 38.6H164.842Z" fill="#2B2B2B"/>
<path d="M220.509 38.6V33.2L220.159 32.05V22.6C220.159 20.7667 219.609 19.35 218.509 18.35C217.409 17.3167 215.742 16.8 213.509 16.8C212.009 16.8 210.526 17.0333 209.059 17.5C207.626 17.9667 206.409 18.6167 205.409 19.45L202.959 14.9C204.392 13.8 206.092 12.9833 208.059 12.45C210.059 11.8833 212.126 11.6 214.259 11.6C218.126 11.6 221.109 12.5333 223.209 14.4C225.342 16.2333 226.409 19.0833 226.409 22.95V38.6H220.509ZM212.109 38.95C210.109 38.95 208.359 38.6167 206.859 37.95C205.359 37.25 204.192 36.3 203.359 35.1C202.559 33.8667 202.159 32.4833 202.159 30.95C202.159 29.45 202.509 28.1 203.209 26.9C203.942 25.7 205.126 24.75 206.759 24.05C208.392 23.35 210.559 23 213.259 23H221.009V27.15H213.709C211.576 27.15 210.142 27.5 209.409 28.2C208.676 28.8667 208.309 29.7 208.309 30.7C208.309 31.8333 208.759 32.7333 209.659 33.4C210.559 34.0667 211.809 34.4 213.409 34.4C214.942 34.4 216.309 34.05 217.509 33.35C218.742 32.65 219.626 31.6167 220.159 30.25L221.209 34C220.609 35.5667 219.526 36.7833 217.959 37.65C216.426 38.5167 214.476 38.95 212.109 38.95Z" fill="#2B2B2B"/>
<path d="M249.23 38.95C247.063 38.95 245.08 38.45 243.28 37.45C241.513 36.45 240.097 34.95 239.03 32.95C237.997 30.9167 237.48 28.35 237.48 25.25C237.48 22.1167 237.98 19.55 238.98 17.55C240.013 15.55 241.413 14.0667 243.18 13.1C244.947 12.1 246.963 11.6 249.23 11.6C251.863 11.6 254.18 12.1667 256.18 13.3C258.213 14.4333 259.813 16.0167 260.98 18.05C262.18 20.0833 262.78 22.4833 262.78 25.25C262.78 28.0167 262.18 30.4333 260.98 32.5C259.813 34.5333 258.213 36.1167 256.18 37.25C254.18 38.3833 251.863 38.95 249.23 38.95ZM234.43 48.3V11.9H240.38V18.2L240.18 25.3L240.68 32.4V48.3H234.43ZM248.53 33.6C250.03 33.6 251.363 33.2667 252.53 32.6C253.73 31.9333 254.68 30.9667 255.38 29.7C256.08 28.4333 256.43 26.95 256.43 25.25C256.43 23.5167 256.08 22.0333 255.38 20.8C254.68 19.5333 253.73 18.5667 252.53 17.9C251.363 17.2333 250.03 16.9 248.53 16.9C247.03 16.9 245.68 17.2333 244.48 17.9C243.28 18.5667 242.33 19.5333 241.63 20.8C240.93 22.0333 240.58 23.5167 240.58 25.25C240.58 26.95 240.93 28.4333 241.63 29.7C242.33 30.9667 243.28 31.9333 244.48 32.6C245.68 33.2667 247.03 33.6 248.53 33.6Z" fill="#2B2B2B"/>
<path d="M154.417 13.6311L143.011 11.4403L151.07 2.50952L154.417 13.6311Z" fill="#2B2B2B"/>
<path d="M133.87 29.8943L127.407 39.5444L122.324 28.6423L133.87 29.8943Z" fill="#2B2B2B"/>
</svg>
